<svg xmlns="http://www.w3.org/2000/svg" width="600" height="600" viewBox="0 0 600 600">
<defs><linearGradient id="bg" x1="0" y1="0" x2="1" y2="1"><stop offset="0" stop-color="#F1F8E9"/><stop offset="1" stop-color="#DCEDC8"/></linearGradient></defs>
<rect width="600" height="600" fill="url(#bg)"/>
<ellipse cx="300" cy="505" rx="160" ry="22" fill="#000" opacity="0.10"/>
<rect x="165" y="240" width="270" height="200" rx="28" fill="#A1887F"/>
<path d="M178 286 Q300 314 422 286 M178 336 Q300 364 422 336 M178 386 Q300 414 422 386" stroke="#8D6E63" stroke-width="5" fill="none"/>
<circle cx="216" cy="320" r="42" fill="#FF5252"/>
<path d="M216 280 Q222 268 236 272" stroke="#33691E" stroke-width="7" fill="none" stroke-linecap="round"/>
<circle cx="216" cy="310" r="9" fill="#FFFFFF" opacity="0.4"/>
<circle cx="302" cy="306" r="46" fill="#FFA726"/>
<circle cx="302" cy="306" r="13" fill="#E65100" opacity="0.25"/>
<path d="M302 262 Q302 248 294 240" stroke="#33691E" stroke-width="8" fill="none" stroke-linecap="round"/>
<ellipse cx="260" cy="312" rx="26" ry="32" fill="#66BB6A"/>
<path d="M260 282 Q260 272 254 268" stroke="#33691E" stroke-width="6" fill="none" stroke-linecap="round"/>
<path d="M332 356 Q378 336 396 356 Q410 370 396 382 Q358 388 334 374" fill="#FFD54F"/>
<circle cx="395" cy="326" r="22" fill="#AB47BC"/>
<circle cx="424" cy="336" r="20" fill="#8E24AA"/>
<circle cx="384" cy="344" r="18" fill="#CE93D8"/>
<path d="M398 314 Q398 304 392 298" stroke="#33691E" stroke-width="6" fill="none" stroke-linecap="round"/>
<rect x="165" y="338" width="270" height="102" rx="26" fill="#A1887F"/>
<path d="M180 358 Q300 386 420 358 M180 396 Q300 424 420 396" stroke="#8D6E63" stroke-width="5" fill="none"/>
<rect x="165" y="330" width="270" height="14" rx="7" fill="#8D6E63"/>
</svg>