<svg xmlns="http://www.w3.org/2000/svg" width="600" height="600" viewBox="0 0 600 600">
<defs><linearGradient id="bg" x1="0" y1="0" x2="1" y2="1"><stop offset="0" stop-color="#E3F2FD"/><stop offset="1" stop-color="#BBDEFB"/></linearGradient></defs>
<rect width="600" height="600" fill="url(#bg)"/>
<ellipse cx="300" cy="505" rx="180" ry="24" fill="#000" opacity="0.10"/>
<rect x="120" y="200" width="360" height="70" rx="26" fill="#42A5F5"/>
<rect x="90" y="180" width="60" height="280" rx="30" fill="#1E88E5"/>
<rect x="450" y="180" width="60" height="280" rx="30" fill="#1E88E5"/>
<rect x="150" y="260" width="300" height="200" rx="30" fill="#2196F3"/>
<rect x="166" y="170" width="120" height="120" rx="28" fill="#64B5F6"/>
<rect x="314" y="170" width="120" height="120" rx="28" fill="#64B5F6"/>
<rect x="180" y="300" width="240" height="130" rx="24" fill="#1E88E5"/>
<circle cx="240" cy="365" r="10" fill="#BBDEFB" opacity="0.8"/>
<circle cx="300" cy="365" r="10" fill="#BBDEFB" opacity="0.8"/>
<circle cx="360" cy="365" r="10" fill="#BBDEFB" opacity="0.8"/>
<rect x="160" y="460" width="16" height="40" rx="6" fill="#455A64"/>
<rect x="424" y="460" width="16" height="40" rx="6" fill="#455A64"/>
</svg>